# xmcd
#
# Track frame offsets:
#	150
#	20886
#	34023
#	51505
#	70267
#	88079
#	110796
#	128520
#	147182
#	160961
#	178759
#	197736
#	217080
#	237601
#	255221
#	274607
#	290494
#	310393
#	330856
#
# Disc length: 4612
#
# Revision: 1
# Processed by: cddbd v1.5.1PL0 Copyright (c) Steve Scherf et al.
# Submitted via: dBpowerAMP V4.0
# Normalized: r0:TDELIM( - ),TSWAP
#
DISCID=23120213
DTITLE=Various Artist - Greatest Moments
DYEAR=2002
DGENRE=Blues
TTITLE0=Bertie Higgins - CASABLANCA
TTITLE1=England Dan and John Ford Coley - NIGHTS ARE FOREVER WITHOUT YOU
TTITLE2=Collin Raye - LOVE ME
TTITLE3=Will To Power - BABY I LOVE YOUR WAY/FREEBIRD MEDLEY (FREE BABY)
TTITLE4=Cliff Richard - MISS YOU NIGHTS
TTITLE5=Glenn Frey - THE ONE YOU LOVE (LIVE)
TTITLE6=Bay City Rollers - THE WAY I FEEL TONIGHT
TTITLE7=America - HORSE WITH NO NAME
TTITLE8=Stephen Bishop - ON AND ON
TTITLE9=Randy Vanwarmer - JUST WHEN I NEEDED YOU MOST
TTITLE10=Boz Scagg - WE'RE ALL ALONE
TTITLE11=Dan Fogelberg - RUN FOR THE ROSES
TTITLE12=Eric Carmen - ALL BY MYSELF
TTITLE13=Paul Davis - I GO CRAZY
TTITLE14=Seals And Cofts - WE MAY NEVER PASS THIS WAY (AGAIN)
TTITLE15=Linda Ronsdalt - ALL MY LIFE
TTITLE16=Kenny Loggins - FOREVER
TTITLE17=Lobo - HOW CAN I TELL HER
TTITLE18=Dan Hill - IT'S A LONG ROAD
EXTD=
EXTT0=
EXTT1=
EXTT2=
EXTT3=
EXTT4=
EXTT5=
EXTT6=
EXTT7=
EXTT8=
EXTT9=
EXTT10=
EXTT11=
EXTT12=
EXTT13=
EXTT14=
EXTT15=
EXTT16=
EXTT17=
EXTT18=
PLAYORDER=
